# xmcd
#
# Track frame offsets:
#	150
#	14349
#	27642
#	41184
#	60448
#	75398
#	91333
#	106463
#	123929
#	138315
#	161347
#	171889
#	187329
#	208173
#	223079
#	241242
#	255859
#	266533
#	289257
#	305795
#
# Disc length: 4389 seconds
#
# Revision: 3
# Processed by: cddbd v1.5.2PL0 Copyright (c) Steve Scherf et al.
# Submitted via: EasyCDDAExtractor 2010.6.0.0
#
DISCID=22112314
DTITLE=Various Artist - That Loving Feeling
DYEAR=2004
DGENRE=Country
TTITLE0=Jose Feliciano - Light My Fire
TTITLE1=Ben E King - Stand By Me
TTITLE2=Kenny Rogers - Ruby, Don't Take Your Love To Town
TTITLE3=Joe Giltrap - How Wonderful You Are
TTITLE4=Odyssey - If You're Looking For A Way Out
TTITLE5=Anne Murray - Both Sides Of Now
TTITLE6=Glen Housten - Gentle On My Mind
TTITLE7=Marcia Griffiths - First Time Ever I Saw Your Face
TTITLE8=Celtic Fayre - Fields Of Gold
TTITLE9=Siobhan McCarthy - My Heart Will Go On
TTITLE10=Bobby Darin - If I Were A Carpenter
TTITLE11=Opera Angels - Time To Say Goodbye
TTITLE12=Sundown Park - Shape Of My Heart
TTITLE13=Detroit Emeralds - Feel The Need In Me
TTITLE14=Paul Flood - My Love
TTITLE15=Don Gibson - I Can't Stop Loving You
TTITLE16=Don Williams - Always Something There To Remind Me
TTITLE17=Cerise Featuring Zoe - 1000 Miles
TTITLE18=Maria Kesselman - I Don't Know How To Love Him
TTITLE19=Rose Royce - Wishing On A Star
EXTD=
EXTT0=
EXTT1=
EXTT2=
EXTT3=
EXTT4=
EXTT5=
EXTT6=
EXTT7=
EXTT8=
EXTT9=
EXTT10=
EXTT11=
EXTT12=
EXTT13=
EXTT14=
EXTT15=
EXTT16=
EXTT17=
EXTT18=
EXTT19=
PLAYORDER=
